<svg class="main-svg" xmlns="http://www.w3.org/2000/svg" xmlns:xlink="http://www.w3.org/1999/xlink" width="1400" height="700" style="" viewBox="0 0 1400 700"><rect x="0" y="0" width="1400" height="700" style="fill: rgb(255, 255, 255); fill-opacity: 1;"/><defs id="defs-73b289"><g class="clips"><clipPath id="clip73b289xyplot" class="plotclip"><rect width="994" height="338"/></clipPath><clipPath class="axesclip" id="clip73b289x"><rect x="80" y="0" width="994" height="700"/></clipPath><clipPath class="axesclip" id="clip73b289y"><rect x="0" y="100" width="1400" height="338"/></clipPath><clipPath class="axesclip" id="clip73b289xy"><rect x="80" y="100" width="994" height="338"/></clipPath></g><g class="gradients"/><g class="patterns"/></defs><g class="bglayer"/><g class="layer-below"><g class="imagelayer"/><g class="shapelayer"/></g><g class="cartesianlayer"><g class="subplot xy"><g class="layer-subplot"><g class="shapelayer"/><g class="imagelayer"/></g><g class="gridlayer"><g class="x"><path class="xgrid crisp" transform="translate(113.13,0)" d="M0,100v338" style="stroke: rgb(0, 0, 0); stroke-opacity: 0; stroke-width: 1px;"/><path class="xgrid crisp" transform="translate(179.4,0)" d="M0,100v338" style="stroke: rgb(0, 0, 0); stroke-opacity: 0; stroke-width: 1px;"/><path class="xgrid crisp" transform="translate(245.67,0)" d="M0,100v338" style="stroke: rgb(0, 0, 0); stroke-opacity: 0; stroke-width: 1px;"/><path class="xgrid crisp" transform="translate(311.93,0)" d="M0,100v338" style="stroke: rgb(0, 0, 0); stroke-opacity: 0; stroke-width: 1px;"/><path class="xgrid crisp" transform="translate(378.2,0)" d="M0,100v338" style="stroke: rgb(0, 0, 0); stroke-opacity: 0; stroke-width: 1px;"/><path class="xgrid crisp" transform="translate(444.47,0)" d="M0,100v338" style="stroke: rgb(0, 0, 0); stroke-opacity: 0; stroke-width: 1px;"/><path class="xgrid crisp" transform="translate(510.73,0)" d="M0,100v338" style="stroke: rgb(0, 0, 0); stroke-opacity: 0; stroke-width: 1px;"/><path class="xgrid crisp" transform="translate(577,0)" d="M0,100v338" style="stroke: rgb(0, 0, 0); stroke-opacity: 0; stroke-width: 1px;"/><path class="xgrid crisp" transform="translate(643.27,0)" d="M0,100v338" style="stroke: rgb(0, 0, 0); stroke-opacity: 0; stroke-width: 1px;"/><path class="xgrid crisp" transform="translate(709.53,0)" d="M0,100v338" style="stroke: rgb(0, 0, 0); stroke-opacity: 0; stroke-width: 1px;"/><path class="xgrid crisp" transform="translate(775.8,0)" d="M0,100v338" style="stroke: rgb(0, 0, 0); stroke-opacity: 0; stroke-width: 1px;"/><path class="xgrid crisp" transform="translate(842.07,0)" d="M0,100v338" style="stroke: rgb(0, 0, 0); stroke-opacity: 0; stroke-width: 1px;"/><path class="xgrid crisp" transform="translate(908.33,0)" d="M0,100v338" style="stroke: rgb(0, 0, 0); stroke-opacity: 0; stroke-width: 1px;"/><path class="xgrid crisp" transform="translate(974.6,0)" d="M0,100v338" style="stroke: rgb(0, 0, 0); stroke-opacity: 0; stroke-width: 1px;"/><path class="xgrid crisp" transform="translate(1040.87,0)" d="M0,100v338" style="stroke: rgb(0, 0, 0); stroke-opacity: 0; stroke-width: 1px;"/></g><g class="y"><path class="ygrid crisp" transform="translate(0,370.4)" d="M80,0h994" style="stroke: rgb(38, 38, 38); stroke-opacity: 0.15; stroke-width: 1px;"/><path class="ygrid crisp" transform="translate(0,302.8)" d="M80,0h994" style="stroke: rgb(38, 38, 38); stroke-opacity: 0.15; stroke-width: 1px;"/><path class="ygrid crisp" transform="translate(0,235.2)" d="M80,0h994" style="stroke: rgb(38, 38, 38); stroke-opacity: 0.15; stroke-width: 1px;"/><path class="ygrid crisp" transform="translate(0,167.6)" d="M80,0h994" style="stroke: rgb(38, 38, 38); stroke-opacity: 0.15; stroke-width: 1px;"/></g></g><g class="zerolinelayer"><path class="yzl zl crisp" transform="translate(0,438)" d="M80,0h994" style="stroke: rgb(0, 0, 0); stroke-opacity: 1; stroke-width: 2px;"/></g><path class="xlines-below"/><path class="ylines-below"/><g class="overlines-below"/><g class="xaxislayer-below"/><g class="yaxislayer-below"/><g class="overaxes-below"/><g class="plot" transform="translate(80,100)" clip-path="url(#clip73b289xyplot)"><g class="boxlayer mlayer"><g class="trace boxes" style="opacity: 1;"><path class="box" d="M16.9,93.69H49.37M16.9,112H49.37V74H16.9ZM33.13,112V163.36M33.13,74V48.4M25.02,163.36H41.25M25.02,48.4H41.25" style="vector-effect: non-scaling-stroke; stroke-width: 2px; stroke: rgb(165, 42, 42); stroke-opacity: 1; fill: rgb(165, 42, 42); fill-opacity: 0.5;"/><g class="points"><path class="point" transform="translate(33.13,197.26)" d="M3,0A3,3 0 1,1 0,-3A3,3 0 0,1 3,0Z" style="opacity: 1; stroke-width: 0px; fill: rgb(165, 42, 42); fill-opacity: 1;"/><path class="point" transform="translate(33.13,195.36)" d="M3,0A3,3 0 1,1 0,-3A3,3 0 0,1 3,0Z" style="opacity: 1; stroke-width: 0px; fill: rgb(165, 42, 42); fill-opacity: 1;"/><path class="point" transform="translate(33.13,178.41)" d="M3,0A3,3 0 1,1 0,-3A3,3 0 0,1 3,0Z" style="opacity: 1; stroke-width: 0px; fill: rgb(165, 42, 42); fill-opacity: 1;"/></g></g><g class="trace boxes" style="opacity: 1;"><path class="box" d="M83.16,269.02H115.64M83.16,283.27H115.64V252.59H83.16ZM99.4,283.27V302.83M99.4,252.59V209.67M91.28,302.83H107.52M91.28,209.67H107.52" style="vector-effect: non-scaling-stroke; stroke-width: 2px; stroke: rgb(165, 42, 42); stroke-opacity: 1; fill: rgb(165, 42, 42); fill-opacity: 0.5;"/><g class="points"><path class="point" transform="translate(99.4,202.16)" d="M3,0A3,3 0 1,1 0,-3A3,3 0 0,1 3,0Z" style="opacity: 1; stroke-width: 0px; fill: rgb(165, 42, 42); fill-opacity: 1;"/><path class="point" transform="translate(99.4,201.61)" d="M3,0A3,3 0 1,1 0,-3A3,3 0 0,1 3,0Z" style="opacity: 1; stroke-width: 0px; fill: rgb(165, 42, 42); fill-opacity: 1;"/><path class="point" transform="translate(99.4,201.5)" d="M3,0A3,3 0 1,1 0,-3A3,3 0 0,1 3,0Z" style="opacity: 1; stroke-width: 0px; fill: rgb(165, 42, 42); fill-opacity: 1;"/></g></g><g class="trace boxes" style="opacity: 1;"><path class="box" d="M149.43,314.76H181.9M149.43,319.76H181.9V307.72H149.43ZM165.67,319.76V327.79M165.67,307.72V290.47M157.55,327.79H173.78M157.55,290.47H173.78" style="vector-effect: non-scaling-stroke; stroke-width: 2px; stroke: rgb(165, 42, 42); stroke-opacity: 1; fill: rgb(165, 42, 42); fill-opacity: 0.5;"/><g class="points"><path class="point" transform="translate(165.67,281.88)" d="M3,0A3,3 0 1,1 0,-3A3,3 0 0,1 3,0Z" style="opacity: 1; stroke-width: 0px; fill: rgb(165, 42, 42); fill-opacity: 1;"/><path class="point" transform="translate(165.67,278.48)" d="M3,0A3,3 0 1,1 0,-3A3,3 0 0,1 3,0Z" style="opacity: 1; stroke-width: 0px; fill: rgb(165, 42, 42); fill-opacity: 1;"/><path class="point" transform="translate(165.67,277.24)" d="M3,0A3,3 0 1,1 0,-3A3,3 0 0,1 3,0Z" style="opacity: 1; stroke-width: 0px; fill: rgb(165, 42, 42); fill-opacity: 1;"/></g></g><g class="trace boxes" style="opacity: 1;"><path class="box" d="M215.7,66.27H248.17M215.7,84.37H248.17V55.41H215.7ZM231.93,84.37V123.3M231.93,55.41V27.9M223.82,123.3H240.05M223.82,27.9H240.05" style="vector-effect: non-scaling-stroke; stroke-width: 2px; stroke: rgb(95, 158, 160); stroke-opacity: 1; fill: rgb(95, 158, 160); fill-opacity: 0.5;"/><g class="points"><path class="point" transform="translate(231.93,152.84)" d="M3,0A3,3 0 1,1 0,-3A3,3 0 0,1 3,0Z" style="opacity: 1; stroke-width: 0px; fill: rgb(95, 158, 160); fill-opacity: 1;"/><path class="point" transform="translate(231.93,135.77)" d="M3,0A3,3 0 1,1 0,-3A3,3 0 0,1 3,0Z" style="opacity: 1; stroke-width: 0px; fill: rgb(95, 158, 160); fill-opacity: 1;"/><path class="point" transform="translate(231.93,133.96)" d="M3,0A3,3 0 1,1 0,-3A3,3 0 0,1 3,0Z" style="opacity: 1; stroke-width: 0px; fill: rgb(95, 158, 160); fill-opacity: 1;"/></g></g><g class="trace boxes" style="opacity: 1;"><path class="box" d="M281.96,337.22H314.44M281.96,337.51H314.44V336.93H281.96ZM298.2,337.51V338M298.2,336.93V336.35M290.08,338H306.32M290.08,336.35H306.32" style="vector-effect: non-scaling-stroke; stroke-width: 2px; stroke: rgb(95, 158, 160); stroke-opacity: 1; fill: rgb(95, 158, 160); fill-opacity: 0.5;"/><g class="points"><path class="point" transform="translate(298.2,335.85)" d="M3,0A3,3 0 1,1 0,-3A3,3 0 0,1 3,0Z" style="opacity: 1; stroke-width: 0px; fill: rgb(95, 158, 160); fill-opacity: 1;"/><path class="point" transform="translate(298.2,335.47)" d="M3,0A3,3 0 1,1 0,-3A3,3 0 0,1 3,0Z" style="opacity: 1; stroke-width: 0px; fill: rgb(95, 158, 160); fill-opacity: 1;"/></g></g><g class="trace boxes" style="opacity: 1;"><path class="box" d="M348.23,272.33H380.7M348.23,283.81H380.7V254.32H348.23ZM364.47,283.81V310.52M364.47,254.32V215.02M356.35,310.52H372.58M356.35,215.02H372.58" style="vector-effect: non-scaling-stroke; stroke-width: 2px; stroke: rgb(95, 158, 160); stroke-opacity: 1; fill: rgb(95, 158, 160); fill-opacity: 0.5;"/><g class="points"><path class="point" transform="translate(364.47,204.04)" d="M3,0A3,3 0 1,1 0,-3A3,3 0 0,1 3,0Z" style="opacity: 1; stroke-width: 0px; fill: rgb(95, 158, 160); fill-opacity: 1;"/><path class="point" transform="translate(364.47,202.59)" d="M3,0A3,3 0 1,1 0,-3A3,3 0 0,1 3,0Z" style="opacity: 1; stroke-width: 0px; fill: rgb(95, 158, 160); fill-opacity: 1;"/><path class="point" transform="translate(364.47,185.79)" d="M3,0A3,3 0 1,1 0,-3A3,3 0 0,1 3,0Z" style="opacity: 1; stroke-width: 0px; fill: rgb(95, 158, 160); fill-opacity: 1;"/></g></g><g class="trace boxes" style="opacity: 1;"><path class="box" d="M414.5,275.19H446.97M414.5,317.29H446.97V204.2H414.5ZM430.73,317.29V337.79M430.73,204.2V101.32M422.62,337.79H438.85M422.62,101.32H438.85" style="vector-effect: non-scaling-stroke; stroke-width: 2px; stroke: rgb(184, 134, 11); stroke-opacity: 1; fill: rgb(184, 134, 11); fill-opacity: 0.5;"/><g class="points"/></g><g class="trace boxes" style="opacity: 1;"><path class="box" d="M480.76,338H513.24M480.76,338H513.24V337.85H480.76ZM497,338V338M497,337.85V337.65M488.88,338H505.12M488.88,337.65H505.12" style="vector-effect: non-scaling-stroke; stroke-width: 2px; stroke: rgb(184, 134, 11); stroke-opacity: 1; fill: rgb(184, 134, 11); fill-opacity: 0.5;"/><g class="points"><path class="point" transform="translate(497,337.63)" d="M3,0A3,3 0 1,1 0,-3A3,3 0 0,1 3,0Z" style="opacity: 1; stroke-width: 0px; fill: rgb(184, 134, 11); fill-opacity: 1;"/><path class="point" transform="translate(497,337.63)" d="M3,0A3,3 0 1,1 0,-3A3,3 0 0,1 3,0Z" style="opacity: 1; stroke-width: 0px; fill: rgb(184, 134, 11); fill-opacity: 1;"/><path class="point" transform="translate(497,337.62)" d="M3,0A3,3 0 1,1 0,-3A3,3 0 0,1 3,0Z" style="opacity: 1; stroke-width: 0px; fill: rgb(184, 134, 11); fill-opacity: 1;"/><path class="point" transform="translate(497,337.61)" d="M3,0A3,3 0 1,1 0,-3A3,3 0 0,1 3,0Z" style="opacity: 1; stroke-width: 0px; fill: rgb(184, 134, 11); fill-opacity: 1;"/><path class="point" transform="translate(497,337.6)" d="M3,0A3,3 0 1,1 0,-3A3,3 0 0,1 3,0Z" style="opacity: 1; stroke-width: 0px; fill: rgb(184, 134, 11); fill-opacity: 1;"/><path class="point" transform="translate(497,337.55)" d="M3,0A3,3 0 1,1 0,-3A3,3 0 0,1 3,0Z" style="opacity: 1; stroke-width: 0px; fill: rgb(184, 134, 11); fill-opacity: 1;"/><path class="point" transform="translate(497,337.38)" d="M3,0A3,3 0 1,1 0,-3A3,3 0 0,1 3,0Z" style="opacity: 1; stroke-width: 0px; fill: rgb(184, 134, 11); fill-opacity: 1;"/></g></g><g class="trace boxes" style="opacity: 1;"><path class="box" d="M547.03,329.88H579.5M547.03,335.34H579.5V313.01H547.03ZM563.27,335.34V338M563.27,313.01V279.78M555.15,338H571.38M555.15,279.78H571.38" style="vector-effect: non-scaling-stroke; stroke-width: 2px; stroke: rgb(184, 134, 11); stroke-opacity: 1; fill: rgb(184, 134, 11); fill-opacity: 0.5;"/><g class="points"><path class="point" transform="translate(563.27,269.43)" d="M3,0A3,3 0 1,1 0,-3A3,3 0 0,1 3,0Z" style="opacity: 1; stroke-width: 0px; fill: rgb(184, 134, 11); fill-opacity: 1;"/><path class="point" transform="translate(563.27,259.26)" d="M3,0A3,3 0 1,1 0,-3A3,3 0 0,1 3,0Z" style="opacity: 1; stroke-width: 0px; fill: rgb(184, 134, 11); fill-opacity: 1;"/><path class="point" transform="translate(563.27,249.38)" d="M3,0A3,3 0 1,1 0,-3A3,3 0 0,1 3,0Z" style="opacity: 1; stroke-width: 0px; fill: rgb(184, 134, 11); fill-opacity: 1;"/><path class="point" transform="translate(563.27,211.42)" d="M3,0A3,3 0 1,1 0,-3A3,3 0 0,1 3,0Z" style="opacity: 1; stroke-width: 0px; fill: rgb(184, 134, 11); fill-opacity: 1;"/><path class="point" transform="translate(563.27,133.43)" d="M3,0A3,3 0 1,1 0,-3A3,3 0 0,1 3,0Z" style="opacity: 1; stroke-width: 0px; fill: rgb(184, 134, 11); fill-opacity: 1;"/><path class="point" transform="translate(563.27,88.49)" d="M3,0A3,3 0 1,1 0,-3A3,3 0 0,1 3,0Z" style="opacity: 1; stroke-width: 0px; fill: rgb(184, 134, 11); fill-opacity: 1;"/><path class="point" transform="translate(563.27,49.21)" d="M3,0A3,3 0 1,1 0,-3A3,3 0 0,1 3,0Z" style="opacity: 1; stroke-width: 0px; fill: rgb(184, 134, 11); fill-opacity: 1;"/><path class="point" transform="translate(563.27,29.12)" d="M3,0A3,3 0 1,1 0,-3A3,3 0 0,1 3,0Z" style="opacity: 1; stroke-width: 0px; fill: rgb(184, 134, 11); fill-opacity: 1;"/></g></g><g class="trace boxes" style="opacity: 1;"><path class="box" d="M613.3,58.72H645.77M613.3,74.91H645.77V45.95H613.3ZM629.53,74.91V110.65M629.53,45.95V29.15M621.42,110.65H637.65M621.42,29.15H637.65" style="vector-effect: non-scaling-stroke; stroke-width: 2px; stroke: rgb(255, 0, 0); stroke-opacity: 1; fill: rgb(255, 0, 0); fill-opacity: 0.5;"/><g class="points"><path class="point" transform="translate(629.53,148.06)" d="M3,0A3,3 0 1,1 0,-3A3,3 0 0,1 3,0Z" style="opacity: 1; stroke-width: 0px; fill: rgb(255, 0, 0); fill-opacity: 1;"/><path class="point" transform="translate(629.53,146.16)" d="M3,0A3,3 0 1,1 0,-3A3,3 0 0,1 3,0Z" style="opacity: 1; stroke-width: 0px; fill: rgb(255, 0, 0); fill-opacity: 1;"/><path class="point" transform="translate(629.53,135.86)" d="M3,0A3,3 0 1,1 0,-3A3,3 0 0,1 3,0Z" style="opacity: 1; stroke-width: 0px; fill: rgb(255, 0, 0); fill-opacity: 1;"/><path class="point" transform="translate(629.53,132)" d="M3,0A3,3 0 1,1 0,-3A3,3 0 0,1 3,0Z" style="opacity: 1; stroke-width: 0px; fill: rgb(255, 0, 0); fill-opacity: 1;"/><path class="point" transform="translate(629.53,127.56)" d="M3,0A3,3 0 1,1 0,-3A3,3 0 0,1 3,0Z" style="opacity: 1; stroke-width: 0px; fill: rgb(255, 0, 0); fill-opacity: 1;"/></g></g><g class="trace boxes" style="opacity: 1;"><path class="box" d="M679.56,337.57H712.04M679.56,337.75H712.04V337.36H679.56ZM695.8,337.75V338M695.8,337.36V336.94M687.68,338H703.92M687.68,336.94H703.92" style="vector-effect: non-scaling-stroke; stroke-width: 2px; stroke: rgb(255, 0, 0); stroke-opacity: 1; fill: rgb(255, 0, 0); fill-opacity: 0.5;"/><g class="points"><path class="point" transform="translate(695.8,336.76)" d="M3,0A3,3 0 1,1 0,-3A3,3 0 0,1 3,0Z" style="opacity: 1; stroke-width: 0px; fill: rgb(255, 0, 0); fill-opacity: 1;"/><path class="point" transform="translate(695.8,336.41)" d="M3,0A3,3 0 1,1 0,-3A3,3 0 0,1 3,0Z" style="opacity: 1; stroke-width: 0px; fill: rgb(255, 0, 0); fill-opacity: 1;"/></g></g><g class="trace boxes" style="opacity: 1;"><path class="box" d="M745.83,318.45H778.3M745.83,322.96H778.3V312.66H745.83ZM762.07,322.96V330.59M762.07,312.66V303.59M753.95,330.59H770.18M753.95,303.59H770.18" style="vector-effect: non-scaling-stroke; stroke-width: 2px; stroke: rgb(255, 0, 0); stroke-opacity: 1; fill: rgb(255, 0, 0); fill-opacity: 0.5;"/><g class="points"><path class="point" transform="translate(762.07,292.54)" d="M3,0A3,3 0 1,1 0,-3A3,3 0 0,1 3,0Z" style="opacity: 1; stroke-width: 0px; fill: rgb(255, 0, 0); fill-opacity: 1;"/></g></g><g class="trace boxes" style="opacity: 1;"><path class="box" d="M812.1,158.32H844.57M812.1,184.64H844.57V142.27H812.1ZM828.33,184.64V217.29M828.33,142.27V97.4M820.22,217.29H836.45M820.22,97.4H836.45" style="vector-effect: non-scaling-stroke; stroke-width: 2px; stroke: rgb(60, 179, 113); stroke-opacity: 1; fill: rgb(60, 179, 113); fill-opacity: 0.5;"/><g class="points"/></g><g class="trace boxes" style="opacity: 1;"><path class="box" d="M878.36,179.68H910.84M878.36,195.73H910.84V153.36H878.36ZM894.6,195.73V240.6M894.6,153.36V120.71M886.48,240.6H902.72M886.48,120.71H902.72" style="vector-effect: non-scaling-stroke; stroke-width: 2px; stroke: rgb(60, 179, 113); stroke-opacity: 1; fill: rgb(60, 179, 113); fill-opacity: 0.5;"/><g class="points"/></g><g class="trace boxes" style="opacity: 1;"><path class="box" d="M944.63,338H977.1M944.63,338H977.1V338H944.63ZM960.87,338V338M960.87,338V338M952.75,338H968.98M952.75,338H968.98" style="vector-effect: non-scaling-stroke; stroke-width: 2px; stroke: rgb(60, 179, 113); stroke-opacity: 1; fill: rgb(60, 179, 113); fill-opacity: 0.5;"/><g class="points"/></g></g></g><g class="overplot"/><path class="xlines-above crisp" d="M0,0" style="fill: none;"/><path class="ylines-above crisp" d="M79,100V438" style="fill: none; stroke-width: 2px; stroke: rgb(0, 0, 0); stroke-opacity: 1;"/><g class="overlines-above"/><g class="xaxislayer-above"><g class="xtick"><text text-anchor="start" x="2.8" y="447" transform="translate(113.13,0) rotate(90,2.8,439)" style="font-family: 'Open Sans', verdana, arial, sans-serif; font-size: 16px; fill: rgb(0, 0, 0); fill-opacity: 1; white-space: pre; opacity: 1;">Metacerberus-Annotated</text></g><g class="xtick"><text text-anchor="start" x="2.8" y="447" transform="translate(179.4,0) rotate(90,2.8,439)" style="font-family: 'Open Sans', verdana, arial, sans-serif; font-size: 16px; fill: rgb(0, 0, 0); fill-opacity: 1; white-space: pre; opacity: 1;">Metacerberus-Hypothetical</text></g><g class="xtick"><text text-anchor="start" x="2.8" y="447" transform="translate(245.67,0) rotate(90,2.8,439)" style="font-family: 'Open Sans', verdana, arial, sans-serif; font-size: 16px; fill: rgb(0, 0, 0); fill-opacity: 1; white-space: pre; opacity: 1;">Metacerberus-Unknown</text></g><g class="xtick"><text text-anchor="start" x="2.8" y="447" transform="translate(311.93,0) rotate(90,2.8,439)" style="font-family: 'Open Sans', verdana, arial, sans-serif; font-size: 16px; fill: rgb(0, 0, 0); fill-opacity: 1; white-space: pre; opacity: 1;">DRAM-Annotated</text></g><g class="xtick"><text text-anchor="start" x="2.8" y="447" transform="translate(378.2,0) rotate(90,2.8,439)" style="font-family: 'Open Sans', verdana, arial, sans-serif; font-size: 16px; fill: rgb(0, 0, 0); fill-opacity: 1; white-space: pre; opacity: 1;">DRAM-Hypothetical</text></g><g class="xtick"><text text-anchor="start" x="2.8" y="447" transform="translate(444.47,0) rotate(90,2.8,439)" style="font-family: 'Open Sans', verdana, arial, sans-serif; font-size: 16px; fill: rgb(0, 0, 0); fill-opacity: 1; white-space: pre; opacity: 1;">DRAM-Unknown</text></g><g class="xtick"><text text-anchor="start" x="2.8" y="447" transform="translate(510.73,0) rotate(90,2.8,439)" style="font-family: 'Open Sans', verdana, arial, sans-serif; font-size: 16px; fill: rgb(0, 0, 0); fill-opacity: 1; white-space: pre; opacity: 1;">InterProScan-Annotated</text></g><g class="xtick"><text text-anchor="start" x="2.8" y="447" transform="translate(577,0) rotate(90,2.8,439)" style="font-family: 'Open Sans', verdana, arial, sans-serif; font-size: 16px; fill: rgb(0, 0, 0); fill-opacity: 1; white-space: pre; opacity: 1;">InterProScan-Hypothetical</text></g><g class="xtick"><text text-anchor="start" x="2.8" y="447" transform="translate(643.27,0) rotate(90,2.8,439)" style="font-family: 'Open Sans', verdana, arial, sans-serif; font-size: 16px; fill: rgb(0, 0, 0); fill-opacity: 1; white-space: pre; opacity: 1;">InterProScan-Unknown</text></g><g class="xtick"><text text-anchor="start" x="2.8" y="447" transform="translate(709.53,0) rotate(90,2.8,439)" style="font-family: 'Open Sans', verdana, arial, sans-serif; font-size: 16px; fill: rgb(0, 0, 0); fill-opacity: 1; white-space: pre; opacity: 1;">InterProScan_pro-Annotated</text></g><g class="xtick"><text text-anchor="start" x="2.8" y="447" transform="translate(775.8,0) rotate(90,2.8,439)" style="font-family: 'Open Sans', verdana, arial, sans-serif; font-size: 16px; fill: rgb(0, 0, 0); fill-opacity: 1; white-space: pre; opacity: 1;">InterProScan_pro-Hypothetical</text></g><g class="xtick"><text text-anchor="start" x="2.8" y="447" transform="translate(842.07,0) rotate(90,2.8,439)" style="font-family: 'Open Sans', verdana, arial, sans-serif; font-size: 16px; fill: rgb(0, 0, 0); fill-opacity: 1; white-space: pre; opacity: 1;">InterProScan_pro-Unknown</text></g><g class="xtick"><text text-anchor="start" x="2.8" y="447" transform="translate(908.33,0) rotate(90,2.8,439)" style="font-family: 'Open Sans', verdana, arial, sans-serif; font-size: 16px; fill: rgb(0, 0, 0); fill-opacity: 1; white-space: pre; opacity: 1;">PROKKA-Annotated</text></g><g class="xtick"><text text-anchor="start" x="2.8" y="447" transform="translate(974.6,0) rotate(90,2.8,439)" style="font-family: 'Open Sans', verdana, arial, sans-serif; font-size: 16px; fill: rgb(0, 0, 0); fill-opacity: 1; white-space: pre; opacity: 1;">PROKKA-Hypothetical</text></g><g class="xtick"><text text-anchor="start" x="2.8" y="447" transform="translate(1040.87,0) rotate(90,2.8,439)" style="font-family: 'Open Sans', verdana, arial, sans-serif; font-size: 16px; fill: rgb(0, 0, 0); fill-opacity: 1; white-space: pre; opacity: 1;">PROKKA-Unknown</text></g></g><g class="yaxislayer-above"><g class="ytick"><text text-anchor="end" x="74.8" y="5.6" transform="translate(0,438)" style="font-family: 'Open Sans', verdana, arial, sans-serif; font-size: 16px; fill: rgb(0, 0, 0); fill-opacity: 1; white-space: pre; opacity: 1;">0</text></g><g class="ytick"><text text-anchor="end" x="74.8" y="5.6" style="font-family: 'Open Sans', verdana, arial, sans-serif; font-size: 16px; fill: rgb(0, 0, 0); fill-opacity: 1; white-space: pre; opacity: 1;" transform="translate(0,370.4)">20</text></g><g class="ytick"><text text-anchor="end" x="74.8" y="5.6" style="font-family: 'Open Sans', verdana, arial, sans-serif; font-size: 16px; fill: rgb(0, 0, 0); fill-opacity: 1; white-space: pre; opacity: 1;" transform="translate(0,302.8)">40</text></g><g class="ytick"><text text-anchor="end" x="74.8" y="5.6" style="font-family: 'Open Sans', verdana, arial, sans-serif; font-size: 16px; fill: rgb(0, 0, 0); fill-opacity: 1; white-space: pre; opacity: 1;" transform="translate(0,235.2)">60</text></g><g class="ytick"><text text-anchor="end" x="74.8" y="5.6" style="font-family: 'Open Sans', verdana, arial, sans-serif; font-size: 16px; fill: rgb(0, 0, 0); fill-opacity: 1; white-space: pre; opacity: 1;" transform="translate(0,167.6)">80</text></g><g class="ytick"><text text-anchor="end" x="74.8" y="5.6" style="font-family: 'Open Sans', verdana, arial, sans-serif; font-size: 16px; fill: rgb(0, 0, 0); fill-opacity: 1; white-space: pre; opacity: 1;" transform="translate(0,100)">100</text></g></g><g class="overaxes-above"/></g></g><g class="polarlayer"/><g class="ternarylayer"/><g class="geolayer"/><g class="funnelarealayer"/><g class="pielayer"/><g class="iciclelayer"/><g class="treemaplayer"/><g class="sunburstlayer"/><g class="glimages"/><defs id="topdefs-73b289"><g class="clips"/><clipPath id="legend73b289"><rect width="294" height="338" x="0" y="0"/></clipPath></defs><g class="layer-above"><g class="imagelayer"/><g class="shapelayer"/></g><g class="infolayer"><g class="legend" pointer-events="all" transform="translate(1093.88,100)"><rect class="bg" shape-rendering="crispEdges" width="294" height="338" x="0" y="0" style="stroke: rgb(68, 68, 68); stroke-opacity: 1; fill: rgb(255, 255, 255); fill-opacity: 1; stroke-width: 0px;"/><g class="scrollbox" transform="" clip-path="url(#legend73b289)"><g class="groups" transform=""><g class="traces" transform="translate(0,16.9)" style="opacity: 1;"><text class="legendtext" text-anchor="start" x="40" y="6.24" style="font-family: 'Open Sans', verdana, arial, sans-serif; font-size: 16px; fill: rgb(0, 0, 0); fill-opacity: 1; white-space: pre;">Metacerberus-Annotated</text><g class="layers" style="opacity: 1;"><g class="legendfill"/><g class="legendlines"/><g class="legendsymbols"><g class="legendpoints"><path class="legendbox" d="M6,6H-6V-6H6Z" transform="translate(20,0)" style="stroke-width: 2px; fill: rgb(165, 42, 42); fill-opacity: 0.5; stroke: rgb(165, 42, 42); stroke-opacity: 1;"/></g></g></g><rect class="legendtoggle" x="0" y="-11.9" width="288.828125" height="23.8" style="fill: rgb(0, 0, 0); fill-opacity: 0;"/></g><g class="traces" transform="translate(0,40.7)" style="opacity: 1;"><text class="legendtext" text-anchor="start" x="40" y="6.24" style="font-family: 'Open Sans', verdana, arial, sans-serif; font-size: 16px; fill: rgb(0, 0, 0); fill-opacity: 1; white-space: pre;">Metacerberus-Hypothetical</text><g class="layers" style="opacity: 1;"><g class="legendfill"/><g class="legendlines"/><g class="legendsymbols"><g class="legendpoints"><path class="legendbox" d="M6,6H-6V-6H6Z" transform="translate(20,0)" style="stroke-width: 2px; fill: rgb(165, 42, 42); fill-opacity: 0.5; stroke: rgb(165, 42, 42); stroke-opacity: 1;"/></g></g></g><rect class="legendtoggle" x="0" y="-11.9" width="288.828125" height="23.8" style="fill: rgb(0, 0, 0); fill-opacity: 0;"/></g><g class="traces" transform="translate(0,64.5)" style="opacity: 1;"><text class="legendtext" text-anchor="start" x="40" y="6.24" style="font-family: 'Open Sans', verdana, arial, sans-serif; font-size: 16px; fill: rgb(0, 0, 0); fill-opacity: 1; white-space: pre;">Metacerberus-Unknown</text><g class="layers" style="opacity: 1;"><g class="legendfill"/><g class="legendlines"/><g class="legendsymbols"><g class="legendpoints"><path class="legendbox" d="M6,6H-6V-6H6Z" transform="translate(20,0)" style="stroke-width: 2px; fill: rgb(165, 42, 42); fill-opacity: 0.5; stroke: rgb(165, 42, 42); stroke-opacity: 1;"/></g></g></g><rect class="legendtoggle" x="0" y="-11.9" width="288.828125" height="23.8" style="fill: rgb(0, 0, 0); fill-opacity: 0;"/></g></g><g class="groups" transform="translate(0,10)"><g class="traces" transform="translate(0,88.30000000000001)" style="opacity: 1;"><text class="legendtext" text-anchor="start" x="40" y="6.24" style="font-family: 'Open Sans', verdana, arial, sans-serif; font-size: 16px; fill: rgb(0, 0, 0); fill-opacity: 1; white-space: pre;">DRAM-Annotated</text><g class="layers" style="opacity: 1;"><g class="legendfill"/><g class="legendlines"/><g class="legendsymbols"><g class="legendpoints"><path class="legendbox" d="M6,6H-6V-6H6Z" transform="translate(20,0)" style="stroke-width: 2px; fill: rgb(95, 158, 160); fill-opacity: 0.5; stroke: rgb(95, 158, 160); stroke-opacity: 1;"/></g></g></g><rect class="legendtoggle" x="0" y="-11.9" width="288.828125" height="23.8" style="fill: rgb(0, 0, 0); fill-opacity: 0;"/></g><g class="traces" transform="translate(0,112.10000000000001)" style="opacity: 1;"><text class="legendtext" text-anchor="start" x="40" y="6.24" style="font-family: 'Open Sans', verdana, arial, sans-serif; font-size: 16px; fill: rgb(0, 0, 0); fill-opacity: 1; white-space: pre;">DRAM-Hypothetical</text><g class="layers" style="opacity: 1;"><g class="legendfill"/><g class="legendlines"/><g class="legendsymbols"><g class="legendpoints"><path class="legendbox" d="M6,6H-6V-6H6Z" transform="translate(20,0)" style="stroke-width: 2px; fill: rgb(95, 158, 160); fill-opacity: 0.5; stroke: rgb(95, 158, 160); stroke-opacity: 1;"/></g></g></g><rect class="legendtoggle" x="0" y="-11.9" width="288.828125" height="23.8" style="fill: rgb(0, 0, 0); fill-opacity: 0;"/></g><g class="traces" transform="translate(0,135.9)" style="opacity: 1;"><text class="legendtext" text-anchor="start" x="40" y="6.24" style="font-family: 'Open Sans', verdana, arial, sans-serif; font-size: 16px; fill: rgb(0, 0, 0); fill-opacity: 1; white-space: pre;">DRAM-Unknown</text><g class="layers" style="opacity: 1;"><g class="legendfill"/><g class="legendlines"/><g class="legendsymbols"><g class="legendpoints"><path class="legendbox" d="M6,6H-6V-6H6Z" transform="translate(20,0)" style="stroke-width: 2px; fill: rgb(95, 158, 160); fill-opacity: 0.5; stroke: rgb(95, 158, 160); stroke-opacity: 1;"/></g></g></g><rect class="legendtoggle" x="0" y="-11.9" width="288.828125" height="23.8" style="fill: rgb(0, 0, 0); fill-opacity: 0;"/></g></g><g class="groups" transform="translate(0,20)"><g class="traces" transform="translate(0,159.70000000000002)" style="opacity: 1;"><text class="legendtext" text-anchor="start" x="40" y="6.24" style="font-family: 'Open Sans', verdana, arial, sans-serif; font-size: 16px; fill: rgb(0, 0, 0); fill-opacity: 1; white-space: pre;">InterProScan-Annotated</text><g class="layers" style="opacity: 1;"><g class="legendfill"/><g class="legendlines"/><g class="legendsymbols"><g class="legendpoints"><path class="legendbox" d="M6,6H-6V-6H6Z" transform="translate(20,0)" style="stroke-width: 2px; fill: rgb(184, 134, 11); fill-opacity: 0.5; stroke: rgb(184, 134, 11); stroke-opacity: 1;"/></g></g></g><rect class="legendtoggle" x="0" y="-11.9" width="288.828125" height="23.8" style="fill: rgb(0, 0, 0); fill-opacity: 0;"/></g><g class="traces" transform="translate(0,183.50000000000003)" style="opacity: 1;"><text class="legendtext" text-anchor="start" x="40" y="6.24" style="font-family: 'Open Sans', verdana, arial, sans-serif; font-size: 16px; fill: rgb(0, 0, 0); fill-opacity: 1; white-space: pre;">InterProScan-Hypothetical</text><g class="layers" style="opacity: 1;"><g class="legendfill"/><g class="legendlines"/><g class="legendsymbols"><g class="legendpoints"><path class="legendbox" d="M6,6H-6V-6H6Z" transform="translate(20,0)" style="stroke-width: 2px; fill: rgb(184, 134, 11); fill-opacity: 0.5; stroke: rgb(184, 134, 11); stroke-opacity: 1;"/></g></g></g><rect class="legendtoggle" x="0" y="-11.9" width="288.828125" height="23.8" style="fill: rgb(0, 0, 0); fill-opacity: 0;"/></g><g class="traces" transform="translate(0,207.30000000000004)" style="opacity: 1;"><text class="legendtext" text-anchor="start" x="40" y="6.24" style="font-family: 'Open Sans', verdana, arial, sans-serif; font-size: 16px; fill: rgb(0, 0, 0); fill-opacity: 1; white-space: pre;">InterProScan-Unknown</text><g class="layers" style="opacity: 1;"><g class="legendfill"/><g class="legendlines"/><g class="legendsymbols"><g class="legendpoints"><path class="legendbox" d="M6,6H-6V-6H6Z" transform="translate(20,0)" style="stroke-width: 2px; fill: rgb(184, 134, 11); fill-opacity: 0.5; stroke: rgb(184, 134, 11); stroke-opacity: 1;"/></g></g></g><rect class="legendtoggle" x="0" y="-11.9" width="288.828125" height="23.8" style="fill: rgb(0, 0, 0); fill-opacity: 0;"/></g></g><g class="groups" transform="translate(0,30)"><g class="traces" transform="translate(0,231.10000000000005)" style="opacity: 1;"><text class="legendtext" text-anchor="start" x="40" y="6.24" style="font-family: 'Open Sans', verdana, arial, sans-serif; font-size: 16px; fill: rgb(0, 0, 0); fill-opacity: 1; white-space: pre;">InterProScan_pro-Annotated</text><g class="layers" style="opacity: 1;"><g class="legendfill"/><g class="legendlines"/><g class="legendsymbols"><g class="legendpoints"><path class="legendbox" d="M6,6H-6V-6H6Z" transform="translate(20,0)" style="stroke-width: 2px; fill: rgb(255, 0, 0); fill-opacity: 0.5; stroke: rgb(255, 0, 0); stroke-opacity: 1;"/></g></g></g><rect class="legendtoggle" x="0" y="-11.9" width="288.828125" height="23.8" style="fill: rgb(0, 0, 0); fill-opacity: 0;"/></g><g class="traces" transform="translate(0,254.90000000000006)" style="opacity: 1;"><text class="legendtext" text-anchor="start" x="40" y="6.24" style="font-family: 'Open Sans', verdana, arial, sans-serif; font-size: 16px; fill: rgb(0, 0, 0); fill-opacity: 1; white-space: pre;">InterProScan_pro-Hypothetical</text><g class="layers" style="opacity: 1;"><g class="legendfill"/><g class="legendlines"/><g class="legendsymbols"><g class="legendpoints"><path class="legendbox" d="M6,6H-6V-6H6Z" transform="translate(20,0)" style="stroke-width: 2px; fill: rgb(255, 0, 0); fill-opacity: 0.5; stroke: rgb(255, 0, 0); stroke-opacity: 1;"/></g></g></g><rect class="legendtoggle" x="0" y="-11.9" width="288.828125" height="23.8" style="fill: rgb(0, 0, 0); fill-opacity: 0;"/></g><g class="traces" transform="translate(0,278.70000000000005)" style="opacity: 1;"><text class="legendtext" text-anchor="start" x="40" y="6.24" style="font-family: 'Open Sans', verdana, arial, sans-serif; font-size: 16px; fill: rgb(0, 0, 0); fill-opacity: 1; white-space: pre;">InterProScan_pro-Unknown</text><g class="layers" style="opacity: 1;"><g class="legendfill"/><g class="legendlines"/><g class="legendsymbols"><g class="legendpoints"><path class="legendbox" d="M6,6H-6V-6H6Z" transform="translate(20,0)" style="stroke-width: 2px; fill: rgb(255, 0, 0); fill-opacity: 0.5; stroke: rgb(255, 0, 0); stroke-opacity: 1;"/></g></g></g><rect class="legendtoggle" x="0" y="-11.9" width="288.828125" height="23.8" style="fill: rgb(0, 0, 0); fill-opacity: 0;"/></g></g><g class="groups" transform="translate(0,40)"><g class="traces" transform="translate(0,302.50000000000006)" style="opacity: 1;"><text class="legendtext" text-anchor="start" x="40" y="6.24" style="font-family: 'Open Sans', verdana, arial, sans-serif; font-size: 16px; fill: rgb(0, 0, 0); fill-opacity: 1; white-space: pre;">PROKKA-Annotated</text><g class="layers" style="opacity: 1;"><g class="legendfill"/><g class="legendlines"/><g class="legendsymbols"><g class="legendpoints"><path class="legendbox" d="M6,6H-6V-6H6Z" transform="translate(20,0)" style="stroke-width: 2px; fill: rgb(60, 179, 113); fill-opacity: 0.5; stroke: rgb(60, 179, 113); stroke-opacity: 1;"/></g></g></g><rect class="legendtoggle" x="0" y="-11.9" width="288.828125" height="23.8" style="fill: rgb(0, 0, 0); fill-opacity: 0;"/></g><g class="traces" transform="translate(0,326.30000000000007)" style="opacity: 1;"><text class="legendtext" text-anchor="start" x="40" y="6.24" style="font-family: 'Open Sans', verdana, arial, sans-serif; font-size: 16px; fill: rgb(0, 0, 0); fill-opacity: 1; white-space: pre;">PROKKA-Hypothetical</text><g class="layers" style="opacity: 1;"><g class="legendfill"/><g class="legendlines"/><g class="legendsymbols"><g class="legendpoints"><path class="legendbox" d="M6,6H-6V-6H6Z" transform="translate(20,0)" style="stroke-width: 2px; fill: rgb(60, 179, 113); fill-opacity: 0.5; stroke: rgb(60, 179, 113); stroke-opacity: 1;"/></g></g></g><rect class="legendtoggle" x="0" y="-11.9" width="288.828125" height="23.8" style="fill: rgb(0, 0, 0); fill-opacity: 0;"/></g><g class="traces" transform="translate(0,350.1000000000001)" style="opacity: 1;"><text class="legendtext" text-anchor="start" x="40" y="6.24" style="font-family: 'Open Sans', verdana, arial, sans-serif; font-size: 16px; fill: rgb(0, 0, 0); fill-opacity: 1; white-space: pre;">PROKKA-Unknown</text><g class="layers" style="opacity: 1;"><g class="legendfill"/><g class="legendlines"/><g class="legendsymbols"><g class="legendpoints"><path class="legendbox" d="M6,6H-6V-6H6Z" transform="translate(20,0)" style="stroke-width: 2px; fill: rgb(60, 179, 113); fill-opacity: 0.5; stroke: rgb(60, 179, 113); stroke-opacity: 1;"/></g></g></g><rect class="legendtoggle" x="0" y="-11.9" width="288.828125" height="23.8" style="fill: rgb(0, 0, 0); fill-opacity: 0;"/></g></g></g><rect class="scrollbar" rx="20" ry="3" width="0" height="0" x="0" y="0" style="fill: rgb(128, 139, 164); fill-opacity: 1;"/></g><g class="g-gtitle"><text class="gtitle" x="70" y="50" text-anchor="start" dy="0em" style="font-family: 'Open Sans', verdana, arial, sans-serif; font-size: 22px; fill: rgb(0, 0, 0); opacity: 1; font-weight: normal; white-space: pre;">GTDB-bacteria</text></g><g class="g-xtitle"/><g class="g-ytitle" transform="translate(3.0185546875,0)"><text class="ytitle" transform="rotate(-90,15.981250000000003,269)" x="15.981250000000003" y="269" text-anchor="middle" style="font-family: 'Open Sans', verdana, arial, sans-serif; font-size: 19px; fill: rgb(0, 0, 0); opacity: 1; font-weight: normal; white-space: pre;">Percentage of proteins</text></g></g></svg>