<svg class="main-svg" xmlns="http://www.w3.org/2000/svg" xmlns:xlink="http://www.w3.org/1999/xlink" width="1400" height="700" style="" viewBox="0 0 1400 700"><rect x="0" y="0" width="1400" height="700" style="fill: rgb(255, 255, 255); fill-opacity: 1;"/><defs id="defs-cab0d6"><g class="clips"><clipPath id="clipcab0d6xyplot" class="plotclip"><rect width="994" height="338"/></clipPath><clipPath class="axesclip" id="clipcab0d6x"><rect x="80" y="0" width="994" height="700"/></clipPath><clipPath class="axesclip" id="clipcab0d6y"><rect x="0" y="100" width="1400" height="338"/></clipPath><clipPath class="axesclip" id="clipcab0d6xy"><rect x="80" y="100" width="994" height="338"/></clipPath></g><g class="gradients"/><g class="patterns"/></defs><g class="bglayer"/><g class="layer-below"><g class="imagelayer"/><g class="shapelayer"/></g><g class="cartesianlayer"><g class="subplot xy"><g class="layer-subplot"><g class="shapelayer"/><g class="imagelayer"/></g><g class="gridlayer"><g class="x"><path class="xgrid crisp" transform="translate(113.13,0)" d="M0,100v338" style="stroke: rgb(0, 0, 0); stroke-opacity: 0; stroke-width: 1px;"/><path class="xgrid crisp" transform="translate(179.4,0)" d="M0,100v338" style="stroke: rgb(0, 0, 0); stroke-opacity: 0; stroke-width: 1px;"/><path class="xgrid crisp" transform="translate(245.67,0)" d="M0,100v338" style="stroke: rgb(0, 0, 0); stroke-opacity: 0; stroke-width: 1px;"/><path class="xgrid crisp" transform="translate(311.93,0)" d="M0,100v338" style="stroke: rgb(0, 0, 0); stroke-opacity: 0; stroke-width: 1px;"/><path class="xgrid crisp" transform="translate(378.2,0)" d="M0,100v338" style="stroke: rgb(0, 0, 0); stroke-opacity: 0; stroke-width: 1px;"/><path class="xgrid crisp" transform="translate(444.47,0)" d="M0,100v338" style="stroke: rgb(0, 0, 0); stroke-opacity: 0; stroke-width: 1px;"/><path class="xgrid crisp" transform="translate(510.73,0)" d="M0,100v338" style="stroke: rgb(0, 0, 0); stroke-opacity: 0; stroke-width: 1px;"/><path class="xgrid crisp" transform="translate(577,0)" d="M0,100v338" style="stroke: rgb(0, 0, 0); stroke-opacity: 0; stroke-width: 1px;"/><path class="xgrid crisp" transform="translate(643.27,0)" d="M0,100v338" style="stroke: rgb(0, 0, 0); stroke-opacity: 0; stroke-width: 1px;"/><path class="xgrid crisp" transform="translate(709.53,0)" d="M0,100v338" style="stroke: rgb(0, 0, 0); stroke-opacity: 0; stroke-width: 1px;"/><path class="xgrid crisp" transform="translate(775.8,0)" d="M0,100v338" style="stroke: rgb(0, 0, 0); stroke-opacity: 0; stroke-width: 1px;"/><path class="xgrid crisp" transform="translate(842.07,0)" d="M0,100v338" style="stroke: rgb(0, 0, 0); stroke-opacity: 0; stroke-width: 1px;"/><path class="xgrid crisp" transform="translate(908.33,0)" d="M0,100v338" style="stroke: rgb(0, 0, 0); stroke-opacity: 0; stroke-width: 1px;"/><path class="xgrid crisp" transform="translate(974.6,0)" d="M0,100v338" style="stroke: rgb(0, 0, 0); stroke-opacity: 0; stroke-width: 1px;"/><path class="xgrid crisp" transform="translate(1040.87,0)" d="M0,100v338" style="stroke: rgb(0, 0, 0); stroke-opacity: 0; stroke-width: 1px;"/></g><g class="y"><path class="ygrid crisp" transform="translate(0,360.26)" d="M80,0h994" style="stroke: rgb(38, 38, 38); stroke-opacity: 0.15; stroke-width: 1px;"/><path class="ygrid crisp" transform="translate(0,299.41999999999996)" d="M80,0h994" style="stroke: rgb(38, 38, 38); stroke-opacity: 0.15; stroke-width: 1px;"/><path class="ygrid crisp" transform="translate(0,238.58)" d="M80,0h994" style="stroke: rgb(38, 38, 38); stroke-opacity: 0.15; stroke-width: 1px;"/><path class="ygrid crisp" transform="translate(0,177.74)" d="M80,0h994" style="stroke: rgb(38, 38, 38); stroke-opacity: 0.15; stroke-width: 1px;"/><path class="ygrid crisp" transform="translate(0,116.9)" d="M80,0h994" style="stroke: rgb(38, 38, 38); stroke-opacity: 0.15; stroke-width: 1px;"/></g></g><g class="zerolinelayer"><path class="yzl zl crisp" transform="translate(0,421.1)" d="M80,0h994" style="stroke: rgb(0, 0, 0); stroke-opacity: 1; stroke-width: 2px;"/></g><path class="xlines-below"/><path class="ylines-below"/><g class="overlines-below"/><g class="xaxislayer-below"/><g class="yaxislayer-below"/><g class="overaxes-below"/><g class="plot" transform="translate(80,100)" clip-path="url(#clipcab0d6xyplot)"><g class="boxlayer mlayer"><g class="trace boxes" style="opacity: 1;"><path class="box" d="M16.9,191.53H49.37M16.9,217.42H49.37V156.53H16.9ZM33.13,217.42V292.13M33.13,156.53V84.5M25.02,292.13H41.25M25.02,84.5H41.25" style="vector-effect: non-scaling-stroke; stroke-width: 2px; stroke: rgb(165, 42, 42); stroke-opacity: 1; fill: rgb(165, 42, 42); fill-opacity: 0.5;"/><g class="points"/></g><g class="trace boxes" style="opacity: 1;"><path class="box" d="M83.16,146.47H115.64M83.16,181.47H115.64V120.58H83.16ZM99.4,181.47V253.5M99.4,120.58V45.87M91.28,253.5H107.52M91.28,45.87H107.52" style="vector-effect: non-scaling-stroke; stroke-width: 2px; stroke: rgb(165, 42, 42); stroke-opacity: 1; fill: rgb(165, 42, 42); fill-opacity: 0.5;"/><g class="points"/></g><g class="trace boxes" style="opacity: 1;"><path class="box" d="M149.43,321.1H181.9M149.43,321.1H181.9V321.1H149.43ZM165.67,321.1V321.1M165.67,321.1V321.1M157.55,321.1H173.78M157.55,321.1H173.78" style="vector-effect: non-scaling-stroke; stroke-width: 2px; stroke: rgb(165, 42, 42); stroke-opacity: 1; fill: rgb(165, 42, 42); fill-opacity: 0.5;"/><g class="points"/></g><g class="trace boxes" style="opacity: 1;"><path class="box" d="M215.7,239.8H248.17M215.7,249.45H248.17V223.14H215.7ZM231.93,249.45V287.83M231.93,223.14V194.35M223.82,287.83H240.05M223.82,194.35H240.05" style="vector-effect: non-scaling-stroke; stroke-width: 2px; stroke: rgb(95, 158, 160); stroke-opacity: 1; fill: rgb(95, 158, 160); fill-opacity: 0.5;"/><g class="points"><path class="point" transform="translate(231.93,321.1)" d="M3,0A3,3 0 1,1 0,-3A3,3 0 0,1 3,0Z" style="opacity: 1; stroke-width: 0px; fill: rgb(95, 158, 160); fill-opacity: 1;"/><path class="point" transform="translate(231.93,304.2)" d="M3,0A3,3 0 1,1 0,-3A3,3 0 0,1 3,0Z" style="opacity: 1; stroke-width: 0px; fill: rgb(95, 158, 160); fill-opacity: 1;"/><path class="point" transform="translate(231.93,177.36)" d="M3,0A3,3 0 1,1 0,-3A3,3 0 0,1 3,0Z" style="opacity: 1; stroke-width: 0px; fill: rgb(95, 158, 160); fill-opacity: 1;"/><path class="point" transform="translate(231.93,139.24)" d="M3,0A3,3 0 1,1 0,-3A3,3 0 0,1 3,0Z" style="opacity: 1; stroke-width: 0px; fill: rgb(95, 158, 160); fill-opacity: 1;"/><path class="point" transform="translate(231.93,87.88)" d="M3,0A3,3 0 1,1 0,-3A3,3 0 0,1 3,0Z" style="opacity: 1; stroke-width: 0px; fill: rgb(95, 158, 160); fill-opacity: 1;"/><path class="point" transform="translate(231.93,85.59)" d="M3,0A3,3 0 1,1 0,-3A3,3 0 0,1 3,0Z" style="opacity: 1; stroke-width: 0px; fill: rgb(95, 158, 160); fill-opacity: 1;"/><path class="point" transform="translate(231.93,83.68)" d="M3,0A3,3 0 1,1 0,-3A3,3 0 0,1 3,0Z" style="opacity: 1; stroke-width: 0px; fill: rgb(95, 158, 160); fill-opacity: 1;"/><path class="point" transform="translate(231.93,76.55)" d="M3,0A3,3 0 1,1 0,-3A3,3 0 0,1 3,0Z" style="opacity: 1; stroke-width: 0px; fill: rgb(95, 158, 160); fill-opacity: 1;"/><path class="point" transform="translate(231.93,54.92)" d="M3,0A3,3 0 1,1 0,-3A3,3 0 0,1 3,0Z" style="opacity: 1; stroke-width: 0px; fill: rgb(95, 158, 160); fill-opacity: 1;"/><path class="point" transform="translate(231.93,42.25)" d="M3,0A3,3 0 1,1 0,-3A3,3 0 0,1 3,0Z" style="opacity: 1; stroke-width: 0px; fill: rgb(95, 158, 160); fill-opacity: 1;"/><path class="point" transform="translate(231.93,35.34)" d="M3,0A3,3 0 1,1 0,-3A3,3 0 0,1 3,0Z" style="opacity: 1; stroke-width: 0px; fill: rgb(95, 158, 160); fill-opacity: 1;"/><path class="point" transform="translate(231.93,31.74)" d="M3,0A3,3 0 1,1 0,-3A3,3 0 0,1 3,0Z" style="opacity: 1; stroke-width: 0px; fill: rgb(95, 158, 160); fill-opacity: 1;"/><path class="point" transform="translate(231.93,27.04)" d="M3,0A3,3 0 1,1 0,-3A3,3 0 0,1 3,0Z" style="opacity: 1; stroke-width: 0px; fill: rgb(95, 158, 160); fill-opacity: 1;"/><path class="point" transform="translate(231.93,16.9)" d="M3,0A3,3 0 1,1 0,-3A3,3 0 0,1 3,0Z" style="opacity: 1; stroke-width: 0px; fill: rgb(95, 158, 160); fill-opacity: 1;"/></g></g><g class="trace boxes" style="opacity: 1;"><path class="box" d="M281.96,107.03H314.44M281.96,131.09H314.44V98.23H281.96ZM298.2,131.09V160.64M298.2,98.23V56.8M290.08,160.64H306.32M290.08,56.8H306.32" style="vector-effect: non-scaling-stroke; stroke-width: 2px; stroke: rgb(95, 158, 160); stroke-opacity: 1; fill: rgb(95, 158, 160); fill-opacity: 0.5;"/><g class="points"><path class="point" transform="translate(298.2,321.1)" d="M3,0A3,3 0 1,1 0,-3A3,3 0 0,1 3,0Z" style="opacity: 1; stroke-width: 0px; fill: rgb(95, 158, 160); fill-opacity: 1;"/><path class="point" transform="translate(298.2,310.96)" d="M3,0A3,3 0 1,1 0,-3A3,3 0 0,1 3,0Z" style="opacity: 1; stroke-width: 0px; fill: rgb(95, 158, 160); fill-opacity: 1;"/><path class="point" transform="translate(298.2,306.84)" d="M3,0A3,3 0 1,1 0,-3A3,3 0 0,1 3,0Z" style="opacity: 1; stroke-width: 0px; fill: rgb(95, 158, 160); fill-opacity: 1;"/><path class="point" transform="translate(298.2,306.26)" d="M3,0A3,3 0 1,1 0,-3A3,3 0 0,1 3,0Z" style="opacity: 1; stroke-width: 0px; fill: rgb(95, 158, 160); fill-opacity: 1;"/><path class="point" transform="translate(298.2,304.2)" d="M3,0A3,3 0 1,1 0,-3A3,3 0 0,1 3,0Z" style="opacity: 1; stroke-width: 0px; fill: rgb(95, 158, 160); fill-opacity: 1;"/><path class="point" transform="translate(298.2,302.66)" d="M3,0A3,3 0 1,1 0,-3A3,3 0 0,1 3,0Z" style="opacity: 1; stroke-width: 0px; fill: rgb(95, 158, 160); fill-opacity: 1;"/><path class="point" transform="translate(298.2,295.75)" d="M3,0A3,3 0 1,1 0,-3A3,3 0 0,1 3,0Z" style="opacity: 1; stroke-width: 0px; fill: rgb(95, 158, 160); fill-opacity: 1;"/><path class="point" transform="translate(298.2,283.08)" d="M3,0A3,3 0 1,1 0,-3A3,3 0 0,1 3,0Z" style="opacity: 1; stroke-width: 0px; fill: rgb(95, 158, 160); fill-opacity: 1;"/><path class="point" transform="translate(298.2,261.74)" d="M3,0A3,3 0 1,1 0,-3A3,3 0 0,1 3,0Z" style="opacity: 1; stroke-width: 0px; fill: rgb(95, 158, 160); fill-opacity: 1;"/><path class="point" transform="translate(298.2,261.45)" d="M3,0A3,3 0 1,1 0,-3A3,3 0 0,1 3,0Z" style="opacity: 1; stroke-width: 0px; fill: rgb(95, 158, 160); fill-opacity: 1;"/><path class="point" transform="translate(298.2,252.41)" d="M3,0A3,3 0 1,1 0,-3A3,3 0 0,1 3,0Z" style="opacity: 1; stroke-width: 0px; fill: rgb(95, 158, 160); fill-opacity: 1;"/><path class="point" transform="translate(298.2,250.12)" d="M3,0A3,3 0 1,1 0,-3A3,3 0 0,1 3,0Z" style="opacity: 1; stroke-width: 0px; fill: rgb(95, 158, 160); fill-opacity: 1;"/><path class="point" transform="translate(298.2,205.37)" d="M3,0A3,3 0 1,1 0,-3A3,3 0 0,1 3,0Z" style="opacity: 1; stroke-width: 0px; fill: rgb(95, 158, 160); fill-opacity: 1;"/></g></g><g class="trace boxes" style="opacity: 1;"><path class="box" d="M348.23,316.15H380.7M348.23,321.1H380.7V312.69H348.23ZM364.47,321.1V321.1M364.47,312.69V305.4M356.35,321.1H372.58M356.35,305.4H372.58" style="vector-effect: non-scaling-stroke; stroke-width: 2px; stroke: rgb(95, 158, 160); stroke-opacity: 1; fill: rgb(95, 158, 160); fill-opacity: 0.5;"/><g class="points"><path class="point" transform="translate(364.47,294.88)" d="M3,0A3,3 0 1,1 0,-3A3,3 0 0,1 3,0Z" style="opacity: 1; stroke-width: 0px; fill: rgb(95, 158, 160); fill-opacity: 1;"/><path class="point" transform="translate(364.47,294.26)" d="M3,0A3,3 0 1,1 0,-3A3,3 0 0,1 3,0Z" style="opacity: 1; stroke-width: 0px; fill: rgb(95, 158, 160); fill-opacity: 1;"/><path class="point" transform="translate(364.47,290.68)" d="M3,0A3,3 0 1,1 0,-3A3,3 0 0,1 3,0Z" style="opacity: 1; stroke-width: 0px; fill: rgb(95, 158, 160); fill-opacity: 1;"/><path class="point" transform="translate(364.47,261.58)" d="M3,0A3,3 0 1,1 0,-3A3,3 0 0,1 3,0Z" style="opacity: 1; stroke-width: 0px; fill: rgb(95, 158, 160); fill-opacity: 1;"/><path class="point" transform="translate(364.47,258.7)" d="M3,0A3,3 0 1,1 0,-3A3,3 0 0,1 3,0Z" style="opacity: 1; stroke-width: 0px; fill: rgb(95, 158, 160); fill-opacity: 1;"/><path class="point" transform="translate(364.47,224.01)" d="M3,0A3,3 0 1,1 0,-3A3,3 0 0,1 3,0Z" style="opacity: 1; stroke-width: 0px; fill: rgb(95, 158, 160); fill-opacity: 1;"/><path class="point" transform="translate(364.47,64.43)" d="M3,0A3,3 0 1,1 0,-3A3,3 0 0,1 3,0Z" style="opacity: 1; stroke-width: 0px; fill: rgb(95, 158, 160); fill-opacity: 1;"/><path class="point" transform="translate(364.47,50.7)" d="M3,0A3,3 0 1,1 0,-3A3,3 0 0,1 3,0Z" style="opacity: 1; stroke-width: 0px; fill: rgb(95, 158, 160); fill-opacity: 1;"/></g></g><g class="trace boxes" style="opacity: 1;"><path class="box" d="M414.5,308.42H446.97M414.5,311.83H446.97V304.39H414.5ZM430.73,311.83V318.17M430.73,304.39V294.26M422.62,318.17H438.85M422.62,294.26H438.85" style="vector-effect: non-scaling-stroke; stroke-width: 2px; stroke: rgb(184, 134, 11); stroke-opacity: 1; fill: rgb(184, 134, 11); fill-opacity: 0.5;"/><g class="points"><path class="point" transform="translate(430.73,289.9)" d="M3,0A3,3 0 1,1 0,-3A3,3 0 0,1 3,0Z" style="opacity: 1; stroke-width: 0px; fill: rgb(184, 134, 11); fill-opacity: 1;"/><path class="point" transform="translate(430.73,288.21)" d="M3,0A3,3 0 1,1 0,-3A3,3 0 0,1 3,0Z" style="opacity: 1; stroke-width: 0px; fill: rgb(184, 134, 11); fill-opacity: 1;"/><path class="point" transform="translate(430.73,286.53)" d="M3,0A3,3 0 1,1 0,-3A3,3 0 0,1 3,0Z" style="opacity: 1; stroke-width: 0px; fill: rgb(184, 134, 11); fill-opacity: 1;"/><path class="point" transform="translate(430.73,284.6)" d="M3,0A3,3 0 1,1 0,-3A3,3 0 0,1 3,0Z" style="opacity: 1; stroke-width: 0px; fill: rgb(184, 134, 11); fill-opacity: 1;"/><path class="point" transform="translate(430.73,280.15)" d="M3,0A3,3 0 1,1 0,-3A3,3 0 0,1 3,0Z" style="opacity: 1; stroke-width: 0px; fill: rgb(184, 134, 11); fill-opacity: 1;"/><path class="point" transform="translate(430.73,277.64)" d="M3,0A3,3 0 1,1 0,-3A3,3 0 0,1 3,0Z" style="opacity: 1; stroke-width: 0px; fill: rgb(184, 134, 11); fill-opacity: 1;"/></g></g><g class="trace boxes" style="opacity: 1;"><path class="box" d="M480.76,321.1H513.24M480.76,321.1H513.24V321.1H480.76ZM497,321.1V321.1M497,321.1V321.1M488.88,321.1H505.12M488.88,321.1H505.12" style="vector-effect: non-scaling-stroke; stroke-width: 2px; stroke: rgb(184, 134, 11); stroke-opacity: 1; fill: rgb(184, 134, 11); fill-opacity: 0.5;"/><g class="points"/></g><g class="trace boxes" style="opacity: 1;"><path class="box" d="M547.03,313.68H579.5M547.03,315.76H579.5V309.09H547.03ZM563.27,315.76V319.27M563.27,309.09V299.37M555.15,319.27H571.38M555.15,299.37H571.38" style="vector-effect: non-scaling-stroke; stroke-width: 2px; stroke: rgb(184, 134, 11); stroke-opacity: 1; fill: rgb(184, 134, 11); fill-opacity: 0.5;"/><g class="points"><path class="point" transform="translate(563.27,297.7)" d="M3,0A3,3 0 1,1 0,-3A3,3 0 0,1 3,0Z" style="opacity: 1; stroke-width: 0px; fill: rgb(184, 134, 11); fill-opacity: 1;"/><path class="point" transform="translate(563.27,296.44)" d="M3,0A3,3 0 1,1 0,-3A3,3 0 0,1 3,0Z" style="opacity: 1; stroke-width: 0px; fill: rgb(184, 134, 11); fill-opacity: 1;"/><path class="point" transform="translate(563.27,296.17)" d="M3,0A3,3 0 1,1 0,-3A3,3 0 0,1 3,0Z" style="opacity: 1; stroke-width: 0px; fill: rgb(184, 134, 11); fill-opacity: 1;"/><path class="point" transform="translate(563.27,295.75)" d="M3,0A3,3 0 1,1 0,-3A3,3 0 0,1 3,0Z" style="opacity: 1; stroke-width: 0px; fill: rgb(184, 134, 11); fill-opacity: 1;"/><path class="point" transform="translate(563.27,294.65)" d="M3,0A3,3 0 1,1 0,-3A3,3 0 0,1 3,0Z" style="opacity: 1; stroke-width: 0px; fill: rgb(184, 134, 11); fill-opacity: 1;"/></g></g><g class="trace boxes" style="opacity: 1;"><path class="box" d="M613.3,263.75H645.77M613.3,273.52H645.77V256.72H613.3ZM629.53,273.52V291.22M629.53,256.72V233.14M621.42,291.22H637.65M621.42,233.14H637.65" style="vector-effect: non-scaling-stroke; stroke-width: 2px; stroke: rgb(255, 0, 0); stroke-opacity: 1; fill: rgb(255, 0, 0); fill-opacity: 0.5;"/><g class="points"><path class="point" transform="translate(629.53,299.37)" d="M3,0A3,3 0 1,1 0,-3A3,3 0 0,1 3,0Z" style="opacity: 1; stroke-width: 0px; fill: rgb(255, 0, 0); fill-opacity: 1;"/><path class="point" transform="translate(629.53,226.46)" d="M3,0A3,3 0 1,1 0,-3A3,3 0 0,1 3,0Z" style="opacity: 1; stroke-width: 0px; fill: rgb(255, 0, 0); fill-opacity: 1;"/><path class="point" transform="translate(629.53,219.7)" d="M3,0A3,3 0 1,1 0,-3A3,3 0 0,1 3,0Z" style="opacity: 1; stroke-width: 0px; fill: rgb(255, 0, 0); fill-opacity: 1;"/><path class="point" transform="translate(629.53,217.75)" d="M3,0A3,3 0 1,1 0,-3A3,3 0 0,1 3,0Z" style="opacity: 1; stroke-width: 0px; fill: rgb(255, 0, 0); fill-opacity: 1;"/></g></g><g class="trace boxes" style="opacity: 1;"><path class="box" d="M679.56,321.1H712.04M679.56,321.1H712.04V321.1H679.56ZM695.8,321.1V321.1M695.8,321.1V321.1M687.68,321.1H703.92M687.68,321.1H703.92" style="vector-effect: non-scaling-stroke; stroke-width: 2px; stroke: rgb(255, 0, 0); stroke-opacity: 1; fill: rgb(255, 0, 0); fill-opacity: 0.5;"/><g class="points"/></g><g class="trace boxes" style="opacity: 1;"><path class="box" d="M745.83,232.37H778.3M745.83,241.02H778.3V222.62H745.83ZM762.07,241.02V268.45M762.07,222.62V211.39M753.95,268.45H770.18M753.95,211.39H770.18" style="vector-effect: non-scaling-stroke; stroke-width: 2px; stroke: rgb(255, 0, 0); stroke-opacity: 1; fill: rgb(255, 0, 0); fill-opacity: 0.5;"/><g class="points"><path class="point" transform="translate(762.07,284.89)" d="M3,0A3,3 0 1,1 0,-3A3,3 0 0,1 3,0Z" style="opacity: 1; stroke-width: 0px; fill: rgb(255, 0, 0); fill-opacity: 1;"/><path class="point" transform="translate(762.07,279.35)" d="M3,0A3,3 0 1,1 0,-3A3,3 0 0,1 3,0Z" style="opacity: 1; stroke-width: 0px; fill: rgb(255, 0, 0); fill-opacity: 1;"/><path class="point" transform="translate(762.07,183.49)" d="M3,0A3,3 0 1,1 0,-3A3,3 0 0,1 3,0Z" style="opacity: 1; stroke-width: 0px; fill: rgb(255, 0, 0); fill-opacity: 1;"/><path class="point" transform="translate(762.07,180.35)" d="M3,0A3,3 0 1,1 0,-3A3,3 0 0,1 3,0Z" style="opacity: 1; stroke-width: 0px; fill: rgb(255, 0, 0); fill-opacity: 1;"/></g></g><g class="trace boxes" style="opacity: 1;"><path class="box" d="M812.1,317.28H844.57M812.1,321.1H844.57V311.44H812.1ZM828.33,321.1V321.1M828.33,311.44V308.21M820.22,321.1H836.45M820.22,308.21H836.45" style="vector-effect: non-scaling-stroke; stroke-width: 2px; stroke: rgb(60, 179, 113); stroke-opacity: 1; fill: rgb(60, 179, 113); fill-opacity: 0.5;"/><g class="points"><path class="point" transform="translate(828.33,281.65)" d="M3,0A3,3 0 1,1 0,-3A3,3 0 0,1 3,0Z" style="opacity: 1; stroke-width: 0px; fill: rgb(60, 179, 113); fill-opacity: 1;"/></g></g><g class="trace boxes" style="opacity: 1;"><path class="box" d="M878.36,20.72H910.84M878.36,26.56H910.84V16.9H878.36ZM894.6,26.56V29.79M894.6,16.9V16.9M886.48,29.79H902.72M886.48,16.9H902.72" style="vector-effect: non-scaling-stroke; stroke-width: 2px; stroke: rgb(60, 179, 113); stroke-opacity: 1; fill: rgb(60, 179, 113); fill-opacity: 0.5;"/><g class="points"><path class="point" transform="translate(894.6,56.35)" d="M3,0A3,3 0 1,1 0,-3A3,3 0 0,1 3,0Z" style="opacity: 1; stroke-width: 0px; fill: rgb(60, 179, 113); fill-opacity: 1;"/></g></g><g class="trace boxes" style="opacity: 1;"><path class="box" d="M944.63,321.1H977.1M944.63,321.1H977.1V321.1H944.63ZM960.87,321.1V321.1M960.87,321.1V321.1M952.75,321.1H968.98M952.75,321.1H968.98" style="vector-effect: non-scaling-stroke; stroke-width: 2px; stroke: rgb(60, 179, 113); stroke-opacity: 1; fill: rgb(60, 179, 113); fill-opacity: 0.5;"/><g class="points"/></g></g></g><g class="overplot"/><path class="xlines-above crisp" d="M0,0" style="fill: none;"/><path class="ylines-above crisp" d="M79,100V438" style="fill: none; stroke-width: 2px; stroke: rgb(0, 0, 0); stroke-opacity: 1;"/><g class="overlines-above"/><g class="xaxislayer-above"><g class="xtick"><text text-anchor="start" x="2.8" y="447" transform="translate(113.13,0) rotate(90,2.8,439)" style="font-family: 'Open Sans', verdana, arial, sans-serif; font-size: 16px; fill: rgb(0, 0, 0); fill-opacity: 1; white-space: pre; opacity: 1;">Metacerberus-Annotated</text></g><g class="xtick"><text text-anchor="start" x="2.8" y="447" transform="translate(179.4,0) rotate(90,2.8,439)" style="font-family: 'Open Sans', verdana, arial, sans-serif; font-size: 16px; fill: rgb(0, 0, 0); fill-opacity: 1; white-space: pre; opacity: 1;">Metacerberus-Hypothetical</text></g><g class="xtick"><text text-anchor="start" x="2.8" y="447" transform="translate(245.67,0) rotate(90,2.8,439)" style="font-family: 'Open Sans', verdana, arial, sans-serif; font-size: 16px; fill: rgb(0, 0, 0); fill-opacity: 1; white-space: pre; opacity: 1;">Metacerberus-Unknown</text></g><g class="xtick"><text text-anchor="start" x="2.8" y="447" transform="translate(311.93,0) rotate(90,2.8,439)" style="font-family: 'Open Sans', verdana, arial, sans-serif; font-size: 16px; fill: rgb(0, 0, 0); fill-opacity: 1; white-space: pre; opacity: 1;">DRAM-Annotated</text></g><g class="xtick"><text text-anchor="start" x="2.8" y="447" transform="translate(378.2,0) rotate(90,2.8,439)" style="font-family: 'Open Sans', verdana, arial, sans-serif; font-size: 16px; fill: rgb(0, 0, 0); fill-opacity: 1; white-space: pre; opacity: 1;">DRAM-Hypothetical</text></g><g class="xtick"><text text-anchor="start" x="2.8" y="447" transform="translate(444.47,0) rotate(90,2.8,439)" style="font-family: 'Open Sans', verdana, arial, sans-serif; font-size: 16px; fill: rgb(0, 0, 0); fill-opacity: 1; white-space: pre; opacity: 1;">DRAM-Unknown</text></g><g class="xtick"><text text-anchor="start" x="2.8" y="447" transform="translate(510.73,0) rotate(90,2.8,439)" style="font-family: 'Open Sans', verdana, arial, sans-serif; font-size: 16px; fill: rgb(0, 0, 0); fill-opacity: 1; white-space: pre; opacity: 1;">InterProScan-Annotated</text></g><g class="xtick"><text text-anchor="start" x="2.8" y="447" transform="translate(577,0) rotate(90,2.8,439)" style="font-family: 'Open Sans', verdana, arial, sans-serif; font-size: 16px; fill: rgb(0, 0, 0); fill-opacity: 1; white-space: pre; opacity: 1;">InterProScan-Hypothetical</text></g><g class="xtick"><text text-anchor="start" x="2.8" y="447" transform="translate(643.27,0) rotate(90,2.8,439)" style="font-family: 'Open Sans', verdana, arial, sans-serif; font-size: 16px; fill: rgb(0, 0, 0); fill-opacity: 1; white-space: pre; opacity: 1;">InterProScan-Unknown</text></g><g class="xtick"><text text-anchor="start" x="2.8" y="447" transform="translate(709.53,0) rotate(90,2.8,439)" style="font-family: 'Open Sans', verdana, arial, sans-serif; font-size: 16px; fill: rgb(0, 0, 0); fill-opacity: 1; white-space: pre; opacity: 1;">InterProScan_pro-Annotated</text></g><g class="xtick"><text text-anchor="start" x="2.8" y="447" transform="translate(775.8,0) rotate(90,2.8,439)" style="font-family: 'Open Sans', verdana, arial, sans-serif; font-size: 16px; fill: rgb(0, 0, 0); fill-opacity: 1; white-space: pre; opacity: 1;">InterProScan_pro-Hypothetical</text></g><g class="xtick"><text text-anchor="start" x="2.8" y="447" transform="translate(842.07,0) rotate(90,2.8,439)" style="font-family: 'Open Sans', verdana, arial, sans-serif; font-size: 16px; fill: rgb(0, 0, 0); fill-opacity: 1; white-space: pre; opacity: 1;">InterProScan_pro-Unknown</text></g><g class="xtick"><text text-anchor="start" x="2.8" y="447" transform="translate(908.33,0) rotate(90,2.8,439)" style="font-family: 'Open Sans', verdana, arial, sans-serif; font-size: 16px; fill: rgb(0, 0, 0); fill-opacity: 1; white-space: pre; opacity: 1;">PROKKA-Annotated</text></g><g class="xtick"><text text-anchor="start" x="2.8" y="447" transform="translate(974.6,0) rotate(90,2.8,439)" style="font-family: 'Open Sans', verdana, arial, sans-serif; font-size: 16px; fill: rgb(0, 0, 0); fill-opacity: 1; white-space: pre; opacity: 1;">PROKKA-Hypothetical</text></g><g class="xtick"><text text-anchor="start" x="2.8" y="447" transform="translate(1040.87,0) rotate(90,2.8,439)" style="font-family: 'Open Sans', verdana, arial, sans-serif; font-size: 16px; fill: rgb(0, 0, 0); fill-opacity: 1; white-space: pre; opacity: 1;">PROKKA-Unknown</text></g></g><g class="yaxislayer-above"><g class="ytick"><text text-anchor="end" x="74.8" y="5.6" transform="translate(0,421.1)" style="font-family: 'Open Sans', verdana, arial, sans-serif; font-size: 16px; fill: rgb(0, 0, 0); fill-opacity: 1; white-space: pre; opacity: 1;">0</text></g><g class="ytick"><text text-anchor="end" x="74.8" y="5.6" style="font-family: 'Open Sans', verdana, arial, sans-serif; font-size: 16px; fill: rgb(0, 0, 0); fill-opacity: 1; white-space: pre; opacity: 1;" transform="translate(0,360.26)">20</text></g><g class="ytick"><text text-anchor="end" x="74.8" y="5.6" style="font-family: 'Open Sans', verdana, arial, sans-serif; font-size: 16px; fill: rgb(0, 0, 0); fill-opacity: 1; white-space: pre; opacity: 1;" transform="translate(0,299.41999999999996)">40</text></g><g class="ytick"><text text-anchor="end" x="74.8" y="5.6" style="font-family: 'Open Sans', verdana, arial, sans-serif; font-size: 16px; fill: rgb(0, 0, 0); fill-opacity: 1; white-space: pre; opacity: 1;" transform="translate(0,238.58)">60</text></g><g class="ytick"><text text-anchor="end" x="74.8" y="5.6" style="font-family: 'Open Sans', verdana, arial, sans-serif; font-size: 16px; fill: rgb(0, 0, 0); fill-opacity: 1; white-space: pre; opacity: 1;" transform="translate(0,177.74)">80</text></g><g class="ytick"><text text-anchor="end" x="74.8" y="5.6" style="font-family: 'Open Sans', verdana, arial, sans-serif; font-size: 16px; fill: rgb(0, 0, 0); fill-opacity: 1; white-space: pre; opacity: 1;" transform="translate(0,116.9)">100</text></g></g><g class="overaxes-above"/></g></g><g class="polarlayer"/><g class="ternarylayer"/><g class="geolayer"/><g class="funnelarealayer"/><g class="pielayer"/><g class="iciclelayer"/><g class="treemaplayer"/><g class="sunburstlayer"/><g class="glimages"/><defs id="topdefs-cab0d6"><g class="clips"/><clipPath id="legendcab0d6"><rect width="294" height="338" x="0" y="0"/></clipPath></defs><g class="layer-above"><g class="imagelayer"/><g class="shapelayer"/></g><g class="infolayer"><g class="legend" pointer-events="all" transform="translate(1093.88,100)"><rect class="bg" shape-rendering="crispEdges" width="294" height="338" x="0" y="0" style="stroke: rgb(68, 68, 68); stroke-opacity: 1; fill: rgb(255, 255, 255); fill-opacity: 1; stroke-width: 0px;"/><g class="scrollbox" transform="" clip-path="url(#legendcab0d6)"><g class="groups" transform=""><g class="traces" transform="translate(0,16.9)" style="opacity: 1;"><text class="legendtext" text-anchor="start" x="40" y="6.24" style="font-family: 'Open Sans', verdana, arial, sans-serif; font-size: 16px; fill: rgb(0, 0, 0); fill-opacity: 1; white-space: pre;">Metacerberus-Annotated</text><g class="layers" style="opacity: 1;"><g class="legendfill"/><g class="legendlines"/><g class="legendsymbols"><g class="legendpoints"><path class="legendbox" d="M6,6H-6V-6H6Z" transform="translate(20,0)" style="stroke-width: 2px; fill: rgb(165, 42, 42); fill-opacity: 0.5; stroke: rgb(165, 42, 42); stroke-opacity: 1;"/></g></g></g><rect class="legendtoggle" x="0" y="-11.9" width="288.828125" height="23.8" style="fill: rgb(0, 0, 0); fill-opacity: 0;"/></g><g class="traces" transform="translate(0,40.7)" style="opacity: 1;"><text class="legendtext" text-anchor="start" x="40" y="6.24" style="font-family: 'Open Sans', verdana, arial, sans-serif; font-size: 16px; fill: rgb(0, 0, 0); fill-opacity: 1; white-space: pre;">Metacerberus-Hypothetical</text><g class="layers" style="opacity: 1;"><g class="legendfill"/><g class="legendlines"/><g class="legendsymbols"><g class="legendpoints"><path class="legendbox" d="M6,6H-6V-6H6Z" transform="translate(20,0)" style="stroke-width: 2px; fill: rgb(165, 42, 42); fill-opacity: 0.5; stroke: rgb(165, 42, 42); stroke-opacity: 1;"/></g></g></g><rect class="legendtoggle" x="0" y="-11.9" width="288.828125" height="23.8" style="fill: rgb(0, 0, 0); fill-opacity: 0;"/></g><g class="traces" transform="translate(0,64.5)" style="opacity: 1;"><text class="legendtext" text-anchor="start" x="40" y="6.24" style="font-family: 'Open Sans', verdana, arial, sans-serif; font-size: 16px; fill: rgb(0, 0, 0); fill-opacity: 1; white-space: pre;">Metacerberus-Unknown</text><g class="layers" style="opacity: 1;"><g class="legendfill"/><g class="legendlines"/><g class="legendsymbols"><g class="legendpoints"><path class="legendbox" d="M6,6H-6V-6H6Z" transform="translate(20,0)" style="stroke-width: 2px; fill: rgb(165, 42, 42); fill-opacity: 0.5; stroke: rgb(165, 42, 42); stroke-opacity: 1;"/></g></g></g><rect class="legendtoggle" x="0" y="-11.9" width="288.828125" height="23.8" style="fill: rgb(0, 0, 0); fill-opacity: 0;"/></g></g><g class="groups" transform="translate(0,10)"><g class="traces" transform="translate(0,88.30000000000001)" style="opacity: 1;"><text class="legendtext" text-anchor="start" x="40" y="6.24" style="font-family: 'Open Sans', verdana, arial, sans-serif; font-size: 16px; fill: rgb(0, 0, 0); fill-opacity: 1; white-space: pre;">DRAM-Annotated</text><g class="layers" style="opacity: 1;"><g class="legendfill"/><g class="legendlines"/><g class="legendsymbols"><g class="legendpoints"><path class="legendbox" d="M6,6H-6V-6H6Z" transform="translate(20,0)" style="stroke-width: 2px; fill: rgb(95, 158, 160); fill-opacity: 0.5; stroke: rgb(95, 158, 160); stroke-opacity: 1;"/></g></g></g><rect class="legendtoggle" x="0" y="-11.9" width="288.828125" height="23.8" style="fill: rgb(0, 0, 0); fill-opacity: 0;"/></g><g class="traces" transform="translate(0,112.10000000000001)" style="opacity: 1;"><text class="legendtext" text-anchor="start" x="40" y="6.24" style="font-family: 'Open Sans', verdana, arial, sans-serif; font-size: 16px; fill: rgb(0, 0, 0); fill-opacity: 1; white-space: pre;">DRAM-Hypothetical</text><g class="layers" style="opacity: 1;"><g class="legendfill"/><g class="legendlines"/><g class="legendsymbols"><g class="legendpoints"><path class="legendbox" d="M6,6H-6V-6H6Z" transform="translate(20,0)" style="stroke-width: 2px; fill: rgb(95, 158, 160); fill-opacity: 0.5; stroke: rgb(95, 158, 160); stroke-opacity: 1;"/></g></g></g><rect class="legendtoggle" x="0" y="-11.9" width="288.828125" height="23.8" style="fill: rgb(0, 0, 0); fill-opacity: 0;"/></g><g class="traces" transform="translate(0,135.9)" style="opacity: 1;"><text class="legendtext" text-anchor="start" x="40" y="6.24" style="font-family: 'Open Sans', verdana, arial, sans-serif; font-size: 16px; fill: rgb(0, 0, 0); fill-opacity: 1; white-space: pre;">DRAM-Unknown</text><g class="layers" style="opacity: 1;"><g class="legendfill"/><g class="legendlines"/><g class="legendsymbols"><g class="legendpoints"><path class="legendbox" d="M6,6H-6V-6H6Z" transform="translate(20,0)" style="stroke-width: 2px; fill: rgb(95, 158, 160); fill-opacity: 0.5; stroke: rgb(95, 158, 160); stroke-opacity: 1;"/></g></g></g><rect class="legendtoggle" x="0" y="-11.9" width="288.828125" height="23.8" style="fill: rgb(0, 0, 0); fill-opacity: 0;"/></g></g><g class="groups" transform="translate(0,20)"><g class="traces" transform="translate(0,159.70000000000002)" style="opacity: 1;"><text class="legendtext" text-anchor="start" x="40" y="6.24" style="font-family: 'Open Sans', verdana, arial, sans-serif; font-size: 16px; fill: rgb(0, 0, 0); fill-opacity: 1; white-space: pre;">InterProScan-Annotated</text><g class="layers" style="opacity: 1;"><g class="legendfill"/><g class="legendlines"/><g class="legendsymbols"><g class="legendpoints"><path class="legendbox" d="M6,6H-6V-6H6Z" transform="translate(20,0)" style="stroke-width: 2px; fill: rgb(184, 134, 11); fill-opacity: 0.5; stroke: rgb(184, 134, 11); stroke-opacity: 1;"/></g></g></g><rect class="legendtoggle" x="0" y="-11.9" width="288.828125" height="23.8" style="fill: rgb(0, 0, 0); fill-opacity: 0;"/></g><g class="traces" transform="translate(0,183.50000000000003)" style="opacity: 1;"><text class="legendtext" text-anchor="start" x="40" y="6.24" style="font-family: 'Open Sans', verdana, arial, sans-serif; font-size: 16px; fill: rgb(0, 0, 0); fill-opacity: 1; white-space: pre;">InterProScan-Hypothetical</text><g class="layers" style="opacity: 1;"><g class="legendfill"/><g class="legendlines"/><g class="legendsymbols"><g class="legendpoints"><path class="legendbox" d="M6,6H-6V-6H6Z" transform="translate(20,0)" style="stroke-width: 2px; fill: rgb(184, 134, 11); fill-opacity: 0.5; stroke: rgb(184, 134, 11); stroke-opacity: 1;"/></g></g></g><rect class="legendtoggle" x="0" y="-11.9" width="288.828125" height="23.8" style="fill: rgb(0, 0, 0); fill-opacity: 0;"/></g><g class="traces" transform="translate(0,207.30000000000004)" style="opacity: 1;"><text class="legendtext" text-anchor="start" x="40" y="6.24" style="font-family: 'Open Sans', verdana, arial, sans-serif; font-size: 16px; fill: rgb(0, 0, 0); fill-opacity: 1; white-space: pre;">InterProScan-Unknown</text><g class="layers" style="opacity: 1;"><g class="legendfill"/><g class="legendlines"/><g class="legendsymbols"><g class="legendpoints"><path class="legendbox" d="M6,6H-6V-6H6Z" transform="translate(20,0)" style="stroke-width: 2px; fill: rgb(184, 134, 11); fill-opacity: 0.5; stroke: rgb(184, 134, 11); stroke-opacity: 1;"/></g></g></g><rect class="legendtoggle" x="0" y="-11.9" width="288.828125" height="23.8" style="fill: rgb(0, 0, 0); fill-opacity: 0;"/></g></g><g class="groups" transform="translate(0,30)"><g class="traces" transform="translate(0,231.10000000000005)" style="opacity: 1;"><text class="legendtext" text-anchor="start" x="40" y="6.24" style="font-family: 'Open Sans', verdana, arial, sans-serif; font-size: 16px; fill: rgb(0, 0, 0); fill-opacity: 1; white-space: pre;">InterProScan_pro-Annotated</text><g class="layers" style="opacity: 1;"><g class="legendfill"/><g class="legendlines"/><g class="legendsymbols"><g class="legendpoints"><path class="legendbox" d="M6,6H-6V-6H6Z" transform="translate(20,0)" style="stroke-width: 2px; fill: rgb(255, 0, 0); fill-opacity: 0.5; stroke: rgb(255, 0, 0); stroke-opacity: 1;"/></g></g></g><rect class="legendtoggle" x="0" y="-11.9" width="288.828125" height="23.8" style="fill: rgb(0, 0, 0); fill-opacity: 0;"/></g><g class="traces" transform="translate(0,254.90000000000006)" style="opacity: 1;"><text class="legendtext" text-anchor="start" x="40" y="6.24" style="font-family: 'Open Sans', verdana, arial, sans-serif; font-size: 16px; fill: rgb(0, 0, 0); fill-opacity: 1; white-space: pre;">InterProScan_pro-Hypothetical</text><g class="layers" style="opacity: 1;"><g class="legendfill"/><g class="legendlines"/><g class="legendsymbols"><g class="legendpoints"><path class="legendbox" d="M6,6H-6V-6H6Z" transform="translate(20,0)" style="stroke-width: 2px; fill: rgb(255, 0, 0); fill-opacity: 0.5; stroke: rgb(255, 0, 0); stroke-opacity: 1;"/></g></g></g><rect class="legendtoggle" x="0" y="-11.9" width="288.828125" height="23.8" style="fill: rgb(0, 0, 0); fill-opacity: 0;"/></g><g class="traces" transform="translate(0,278.70000000000005)" style="opacity: 1;"><text class="legendtext" text-anchor="start" x="40" y="6.24" style="font-family: 'Open Sans', verdana, arial, sans-serif; font-size: 16px; fill: rgb(0, 0, 0); fill-opacity: 1; white-space: pre;">InterProScan_pro-Unknown</text><g class="layers" style="opacity: 1;"><g class="legendfill"/><g class="legendlines"/><g class="legendsymbols"><g class="legendpoints"><path class="legendbox" d="M6,6H-6V-6H6Z" transform="translate(20,0)" style="stroke-width: 2px; fill: rgb(255, 0, 0); fill-opacity: 0.5; stroke: rgb(255, 0, 0); stroke-opacity: 1;"/></g></g></g><rect class="legendtoggle" x="0" y="-11.9" width="288.828125" height="23.8" style="fill: rgb(0, 0, 0); fill-opacity: 0;"/></g></g><g class="groups" transform="translate(0,40)"><g class="traces" transform="translate(0,302.50000000000006)" style="opacity: 1;"><text class="legendtext" text-anchor="start" x="40" y="6.24" style="font-family: 'Open Sans', verdana, arial, sans-serif; font-size: 16px; fill: rgb(0, 0, 0); fill-opacity: 1; white-space: pre;">PROKKA-Annotated</text><g class="layers" style="opacity: 1;"><g class="legendfill"/><g class="legendlines"/><g class="legendsymbols"><g class="legendpoints"><path class="legendbox" d="M6,6H-6V-6H6Z" transform="translate(20,0)" style="stroke-width: 2px; fill: rgb(60, 179, 113); fill-opacity: 0.5; stroke: rgb(60, 179, 113); stroke-opacity: 1;"/></g></g></g><rect class="legendtoggle" x="0" y="-11.9" width="288.828125" height="23.8" style="fill: rgb(0, 0, 0); fill-opacity: 0;"/></g><g class="traces" transform="translate(0,326.30000000000007)" style="opacity: 1;"><text class="legendtext" text-anchor="start" x="40" y="6.24" style="font-family: 'Open Sans', verdana, arial, sans-serif; font-size: 16px; fill: rgb(0, 0, 0); fill-opacity: 1; white-space: pre;">PROKKA-Hypothetical</text><g class="layers" style="opacity: 1;"><g class="legendfill"/><g class="legendlines"/><g class="legendsymbols"><g class="legendpoints"><path class="legendbox" d="M6,6H-6V-6H6Z" transform="translate(20,0)" style="stroke-width: 2px; fill: rgb(60, 179, 113); fill-opacity: 0.5; stroke: rgb(60, 179, 113); stroke-opacity: 1;"/></g></g></g><rect class="legendtoggle" x="0" y="-11.9" width="288.828125" height="23.8" style="fill: rgb(0, 0, 0); fill-opacity: 0;"/></g><g class="traces" transform="translate(0,350.1000000000001)" style="opacity: 1;"><text class="legendtext" text-anchor="start" x="40" y="6.24" style="font-family: 'Open Sans', verdana, arial, sans-serif; font-size: 16px; fill: rgb(0, 0, 0); fill-opacity: 1; white-space: pre;">PROKKA-Unknown</text><g class="layers" style="opacity: 1;"><g class="legendfill"/><g class="legendlines"/><g class="legendsymbols"><g class="legendpoints"><path class="legendbox" d="M6,6H-6V-6H6Z" transform="translate(20,0)" style="stroke-width: 2px; fill: rgb(60, 179, 113); fill-opacity: 0.5; stroke: rgb(60, 179, 113); stroke-opacity: 1;"/></g></g></g><rect class="legendtoggle" x="0" y="-11.9" width="288.828125" height="23.8" style="fill: rgb(0, 0, 0); fill-opacity: 0;"/></g></g></g><rect class="scrollbar" rx="20" ry="3" width="0" height="0" x="0" y="0" style="fill: rgb(128, 139, 164); fill-opacity: 1;"/></g><g class="g-gtitle"><text class="gtitle" x="70" y="50" text-anchor="start" dy="0em" style="font-family: 'Open Sans', verdana, arial, sans-serif; font-size: 22px; fill: rgb(0, 0, 0); opacity: 1; font-weight: normal; white-space: pre;">VIRAL_ARCHAEA</text></g><g class="g-xtitle"/><g class="g-ytitle" transform="translate(3.0185546875,0)"><text class="ytitle" transform="rotate(-90,15.981250000000003,269)" x="15.981250000000003" y="269" text-anchor="middle" style="font-family: 'Open Sans', verdana, arial, sans-serif; font-size: 19px; fill: rgb(0, 0, 0); opacity: 1; font-weight: normal; white-space: pre;">Percentage of proteins</text></g></g></svg>